<svg width="101" height="35" viewBox="0 0 350 81.869" xmlns="http://www.w3.org/2000/svg"><defs><linearGradient id="a"><stop stop-color="#147d6c" offset="0"/><stop stop-color="#1effff" offset="1"/></linearGradient></defs><path d="M5.1 14.78h2.08v1.86c0 2.24-1.12 3.52-3.28 3.52S.62 18.88.62 16.64V9.36c0-2.24 1.12-3.52 3.28-3.52s3.28 1.28 3.28 3.52v1.36H5.1v-1.5c0-1-.44-1.38-1.14-1.38s-1.14.38-1.14 1.38v7.56c0 1 .44 1.36 1.14 1.36s1.14-.36 1.14-1.36v-2zM8.52 20V6h2.2v14h-2.2zm8.5 0-2.7-10.14h-.04V20H12.3V6h2.76l2.22 8.38h.04V6h1.96v14h-2.26zm6.04-12v3.9h3.02v2h-3.02V18h3.8v2h-6V6h6v2h-3.8zm8.2-2 1.6 9.94h.04L34.38 6h3.06v14h-2.08V9.96h-.04L33.84 20h-2.08l-1.6-9.9h-.04V20H28.2V6h3.06zm9.8 3.22v7.56c0 1 .44 1.38 1.14 1.38s1.14-.38 1.14-1.38V9.22c0-1-.44-1.38-1.14-1.38s-1.14.38-1.14 1.38zm-2.2 7.42V9.36c0-2.24 1.18-3.52 3.34-3.52s3.34 1.28 3.34 3.52v7.28c0 2.24-1.18 3.52-3.34 3.52s-3.34-1.28-3.34-3.52zm10.12-7.42v7.56c0 1 .44 1.38 1.14 1.38s1.14-.38 1.14-1.38V9.22c0-1-.44-1.38-1.14-1.38s-1.14.38-1.14 1.38zm-2.2 7.42V9.36c0-2.24 1.18-3.52 3.34-3.52s3.34 1.28 3.34 3.52v7.28c0 2.24-1.18 3.52-3.34 3.52s-3.34-1.28-3.34-3.52zM59.58 20l-2.7-10.14h-.04V20h-1.98V6h2.76l2.22 8.38h.04V6h1.96v14h-2.26z" transform="matrix(5.71709 0 0 5.71709 -3.545 -33.388)" fill="url(#a)"/></svg>